<?xml version="1.0"?>
<svg width="748.82965" height="557.20035" xmlns="http://www.w3.org/2000/svg" xmlns:svg="http://www.w3.org/2000/svg" data-name="Layer 1">
 <g class="layer">
  <title>Layer 1</title>
  <path d="m276.6,642.06c-3.6,0 -7.21,0.17 -10.73,0.51l-0.51,0.05c-23.37,2.38 -40.46,16.18 -39.75,32.09l0.13,2.88c0.09,1.82 0.19,3.78 0.27,5.95c0.04,1.07 1.31,1.89 2.89,1.89l574.73,0c40.52,-0.29 80.89,-0.64 119.99,-1.06a177.65,177.65 0 0 0 21.96,-1.31c10.86,-1.48 18.4,-4.42 23.06,-8.97l0,0c5.78,-5.65 5.96,-12.77 5.61,-20.81c-0.71,-16.23 -1.42,-33.28 -2.12,-50.28c-0.62,-14.99 -1.24,-29.93 -1.86,-44.24c-0.39,-8.49 -1.24,-15.98 -7.81,-21.71c-7.12,-6.19 -20.1,-9.33 -38.59,-9.33c-0.22,0 -0.44,0 -0.67,0c-57.93,0.23 -115.34,23.17 -142.84,57.06c-3.17,3.91 -6.12,8.09 -8.97,12.13a158.92,158.92 0 0 1 -13.79,17.66a66.95,66.95 0 0 1 -9.1,8.17c-0.22,0.18 -0.48,0.37 -0.75,0.55c-0.62,0.46 -1.26,0.91 -1.89,1.31a62.04,62.04 0 0 1 -11.61,6.08l-0.41,0.15c-0.31,0.13 -0.64,0.26 -0.97,0.37a68.21,68.21 0 0 1 -7.17,2.21c-10.48,2.66 -22.4,3.29 -35.43,1.89a151.75,151.75 0 0 1 -35.23,-8.26c-12.06,-4.39 -23.35,-9.86 -34.27,-15.16c-4.8,-2.32 -9.76,-4.72 -14.71,-7c-0.93,-0.43 -1.85,-0.85 -2.78,-1.27c-6.05,-2.71 -11.54,-4.96 -16.77,-6.85a146.28,146.28 0 0 0 -39.97,-8.52c-14.4,-0.91 -27.1,0.8 -37.73,5.07a60.65,60.65 0 0 0 -8.53,4.24c-12.59,7.52 -20.34,18.63 -27.85,29.36c-9.33,13.36 -18.98,27.17 -38.03,34.33c-21.99,8.27 -54.09,4.84 -76.8,-1.14c-7.14,-1.88 -14.27,-4.04 -21.16,-6.13q-4.18,-1.27 -8.36,-2.52c-5.48,-1.62 -9.97,-2.87 -14.12,-3.93l-1.31,-0.33c-0.73,-0.18 -1.46,-0.37 -2.21,-0.54c-4.93,-1.19 -9.52,-2.13 -14.04,-2.87l-1.06,-0.18c-2.15,-0.32 -4.15,-0.59 -6.12,-0.82l-0.79,-0.09a109.24,109.24 0 0 0 -11.83,-0.63z" fill="#f2f2f2" id="svg_1" style="--darkreader-inline-fill: #070705;" transform="translate(-225.58517 -171.39982)"/>
  <path d="m343.64,685.35a1.19,1.19 0 0 1 1.19,-1.19l510.29,0a1.19,1.19 0 0 1 0,2.38l-510.29,0a1.19,1.19 0 0 1 -1.19,-1.19z" fill="#cacaca" id="svg_2" style="--darkreader-inline-fill: #191712;" transform="translate(-225.58517 -171.39982)"/>
  <path d="m520.41,43.04a42.86,42.86 0 0 1 -11.46,29.24c-0.56,0.61 -1.15,1.2 -1.75,1.77a650.4,650.4 0 0 0 -69.84,-46.89c0.3,-0.76 0.62,-1.51 0.97,-2.25a43.04,43.04 0 0 1 82.08,18.13z" fill="#25d366" id="svg_3"/>
  <path d="m780.91,302.04l-0.04,0.45q-42.46,-2.93 -84.92,-5.86c-20.45,-1.41 -41.61,-3.01 -59.68,-12.69c-6.86,-3.67 -13.54,-8.57 -21.32,-8.91c-9.65,-0.43 -18.07,6.32 -24.69,13.36c-39.13,41.68 -50.46,105.41 -94.36,142.02a1394.14,1394.14 0 0 1 98.86,-197.31c7.04,-11.65 15.39,-24.09 28.46,-27.89c12.47,-3.63 25.23,1.67 36.71,8.47c2.46,1.46 4.86,2.99 7.18,4.51q26.54,17.37 52.2,36.07q31.52,22.93 61.6,47.78z" fill="#f2f2f2" id="svg_4" style="--darkreader-inline-fill: #070705;" transform="translate(-225.58517 -171.39982)"/>
  <path d="m872.47,390.44a670.65,670.65 0 0 0 -104.75,-116.27q-16.96,-14.91 -34.93,-28.72a650.4,650.4 0 0 0 -69.84,-46.89q-11.94,-6.93 -24.16,-13.31c-6.33,-3.29 -13.07,-6.3 -20.37,-5.83a27.1,27.1 0 0 0 -14.07,5.41c-8.97,6.55 -14.91,16.78 -19.8,26.53c-4.28,8.55 -8.27,17.27 -12.34,25.94c-1.73,3.69 -3.46,7.37 -5.25,11.03q-9.36,19.23 -19.16,38.25q-12.63,24.51 -25.99,48.65q-28.06,50.74 -59.23,99.66q-45.81,71.89 -98.02,139.43c-4.27,5.51 -6.03,6.79 -10.36,12.26c-1,1.28 -2.78,-0.52 -1.79,-1.79c36.11,-45.64 67.55,-88.76 99.25,-137.58q35.85,-55.22 67.76,-112.88q10.25,-18.5 20.06,-37.22q15.89,-30.32 30.67,-61.2q3.9,-8.13 7.72,-16.32c8.09,-17.33 19.87,-43.1 42.62,-42.75c6.69,0.1 12.9,2.81 18.76,5.81c5.97,3.07 11.83,6.33 17.68,9.64q3.51,1.98 6.99,4.02q13.79,8.01 27.16,16.69q22.32,14.47 43.46,30.68q10.04,7.69 19.77,15.74a673.55,673.55 0 0 1 109.09,114.31q5.75,7.63 11.25,15.44c0.94,1.33 -1.25,2.59 -2.18,1.27z" fill="#e4e4e4" id="svg_5" style="--darkreader-inline-fill: #0e0c0a;" transform="translate(-225.58517 -171.39982)"/>
  <path d="m769.98,261.44c1.32,-1.47 2.63,-2.95 3.96,-4.42c10.49,-11.6 21.75,-23.07 36.16,-29.72a52.46,52.46 0 0 1 21.98,-5.1c7.86,0.03 15.55,2.09 22.82,4.98c3.43,1.37 6.79,2.93 10.1,4.59c3.78,1.9 7.5,3.93 11.19,5.98q10.41,5.76 20.55,12.02q20.17,12.47 39.08,26.84q9.8,7.45 19.2,15.39q8.74,7.38 17.12,15.15c1.2,1.1 2.98,-0.68 1.79,-1.79c-1.48,-1.37 -2.97,-2.73 -4.46,-4.08q-6.31,-5.71 -12.83,-11.2q-11.88,-10.03 -24.39,-19.28q-19.43,-14.4 -40.21,-26.85q-10.38,-6.21 -21.05,-11.9c-2.15,-1.15 -4.32,-2.27 -6.52,-3.33a103.9,103.9 0 0 0 -15.49,-6.31a55.12,55.12 0 0 0 -23.4,-2.3a60.92,60.92 0 0 0 -21.59,7.47c-14.15,7.91 -25.12,20.14 -35.8,32.07c-1.08,1.21 0.7,3 1.79,1.79z" fill="#e4e4e4" id="svg_6" style="--darkreader-inline-fill: #0e0c0a;" transform="translate(-225.58517 -171.39982)"/>
  <path d="m480.13,381.68l-33.9,-12.39l-16.83,-6.16c-5.48,-2.01 -10.95,-4.29 -16.62,-5.72a26.21,26.21 0 0 0 -15.04,0.19a34.66,34.66 0 0 0 -11.73,7.27a95.2,95.2 0 0 0 -9.62,10.27c-3.66,4.41 -7.27,8.86 -10.9,13.29q-22.45,27.46 -44.61,55.15q-22.15,27.7 -44.01,55.62q-21.91,28 -43.53,56.23q-2.64,3.46 -5.29,6.92c-0.97,1.28 -3.17,0.02 -2.18,-1.27q21.77,-28.52 43.85,-56.8q22.13,-28.35 44.56,-56.46q22.44,-28.1 45.17,-55.97q5.67,-6.94 11.35,-13.87c3.2,-3.89 6.36,-7.83 9.86,-11.46c6.44,-6.65 14.48,-12.53 24.1,-12.69c5.66,-0.09 11.13,1.7 16.39,3.6c5.67,2.05 11.32,4.14 16.98,6.21l34.13,12.49l8.54,3.12c1.51,0.55 0.86,2.99 -0.67,2.43z" fill="#e4e4e4" id="svg_7" style="--darkreader-inline-fill: #0e0c0a;" transform="translate(-225.58517 -171.39982)"/>
  <path d="m814.56,241.9c17.23,-8.86 39.29,-7.12 55.12,3.94a786.12,786.12 0 0 0 -89.44,20.87c12.2,-7.15 21.74,-18.35 34.32,-24.81z" fill="#f2f2f2" id="svg_8" style="--darkreader-inline-fill: #070705;" transform="translate(-225.58517 -171.39982)"/>
  <path d="m869.85,245.81l3.31,2.69c-1.12,-0.94 -2.29,-1.82 -3.48,-2.66c0.05,-0.01 0.11,-0.02 0.17,-0.03z" fill="#f2f2f2" id="svg_9" style="--darkreader-inline-fill: #938366;" transform="translate(-225.58517 -171.39982)"/>
  <path d="m387.29,381.81c3.34,-4.06 6.94,-8.32 11.93,-9.97l4.66,0.19a528.55,528.55 0 0 1 -140.78,160.94q62.1,-75.58 124.19,-151.16z" fill="#f2f2f2" id="svg_10" style="--darkreader-inline-fill: #070705;" transform="translate(-225.58517 -171.39982)"/>
  <path d="m736.79,610.34l-28.21,-12.45l0,-10.7l10.05,-0.05a7.47,7.47 0 0 0 7.05,-5.11l7.06,-21.19a7.47,7.47 0 0 0 -7.09,-9.84l-17.07,0l0,-9.96l21.44,0a7.47,7.47 0 0 0 7.28,-5.79l4.86,-21.16a7.47,7.47 0 0 0 -7.28,-9.15l-26.3,0l0,-2.49a4.98,4.98 0 0 0 -9.96,0l0,2.49l-176.36,0l0,-2.49a4.98,4.98 0 0 0 -9.96,0l0,2.49l-20.91,0a7.47,7.47 0 0 0 -7.28,9.15l4.87,21.16a7.47,7.47 0 0 0 7.28,5.79l16.04,0l0,9.96l-11.68,0a7.47,7.47 0 0 0 -7.11,9.76l7.21,22.38a7.47,7.47 0 0 0 7.15,5.18l4.43,-0.03l0,9.6l-22.82,12.45a7.47,7.47 0 0 0 -7.47,7.47l0,0a7.47,7.47 0 0 0 7.47,7.47l22.82,0l0,54.78a4.98,4.98 0 0 0 9.96,0l0,-54.78l176.36,0l0,54.78a4.98,4.98 0 0 0 9.96,0l0,-54.78l28.21,0a7.47,7.47 0 0 0 7.47,-7.47l0,0a7.47,7.47 0 0 0 -7.47,-7.47zm-214.53,-69.3l176.36,0l0,9.96l-176.36,0l0,-9.96zm0,56.85l0,-9.65l176.36,-0.99l0,10.64l-176.36,0z" fill="#ccc" id="svg_11" style="--darkreader-inline-fill: #181611;" transform="translate(-225.58517 -171.39982)"/>
  <path d="m315.96,589.21l7.98,-26a87.77,87.77 0 0 0 -35.08,-23.51c13.12,21.75 0.4,50.11 5.7,74.95a52.79,52.79 0 0 0 28.28,35.98l12.12,15.01a88.47,88.47 0 0 0 6.5,-73.79a85.45,85.45 0 0 0 -9.9,-19.01c-7.2,8.46 -15.6,16.37 -15.6,16.37z" fill="#f2f2f2" id="svg_12" style="--darkreader-inline-fill: #070705;" transform="translate(-225.58517 -171.39982)"/>
  <path d="m272.05,592.54l-4.45,-26.84a87.77,87.77 0 0 0 -41.89,-5.39c21.45,13.61 22.72,44.67 38.54,64.53a52.79,52.79 0 0 0 41.35,19.59l17.54,8.04a88.47,88.47 0 0 0 -27.09,-68.94a85.45,85.45 0 0 0 -17.33,-12.61c-2.67,10.78 -6.67,21.62 -6.67,21.62z" fill="#f2f2f2" id="svg_13" style="--darkreader-inline-fill: #070705;" transform="translate(-225.58517 -171.39982)"/>
  <path d="m902.51,479.12l-17.47,-20.86a87.77,87.77 0 0 1 23.19,-35.29c-3.64,25.13 19.11,46.32 23.88,71.27a52.79,52.79 0 0 1 -12.07,44.14l-5.32,18.54a88.47,88.47 0 0 1 -34.68,-65.45a85.45,85.45 0 0 1 1.72,-21.37c9.93,5 20.75,9.02 20.75,9.02z" fill="#f2f2f2" id="svg_14" style="--darkreader-inline-fill: #070705;" transform="translate(-225.58517 -171.39982)"/>
  <path d="m944.25,465.11l-6.33,-26.46a87.77,87.77 0 0 1 36.49,-21.25c-14.46,20.88 -3.55,49.99 -10.41,74.44a52.79,52.79 0 0 1 -30.48,34.13l-13.04,14.22a88.47,88.47 0 0 1 -1.85,-74.05a85.45,85.45 0 0 1 11.08,-18.36c6.65,8.9 14.54,17.33 14.54,17.33z" fill="#f2f2f2" id="svg_15" style="--darkreader-inline-fill: #070705;" transform="translate(-225.58517 -171.39982)"/>
  <polygon fill="#ffb6b6" id="svg_16" points="373.867 536.045 362.393 541.58 335.583 499.958 352.517 491.789 373.867 536.045" style="--darkreader-inline-fill: #030302;"/>
  <path d="m600.75,539.92l-10.2,15.39s-60.64,40.15 -58.11,55.09c0.89,5.22 4.74,16.22 9.69,28.46c1.52,3.77 8.66,11.25 10.34,15.12c8.45,19.54 12.66,35.17 16.72,37.26c4.51,2.34 4.05,0.49 6.81,4.75l16,-6s2.5,-5.59 3.73,-8.36s-0.7,-4.15 -0.7,-4.15s-2.35,1.25 -1.94,-1.38s0.27,-3.46 -0.7,-4.15s-4.73,-7.74 -4.73,-7.74a69.82,69.82 0 0 1 -8.19,-16.23c-0.89,-2.52 -0.81,-8.56 -2,-11c-2.52,-5.14 -3.41,-8.93 -7.49,-11.6c0,0 51.27,-24.91 56.08,-36.82s-0.14,-51.2 -0.14,-51.2l-25.17,2.56z" fill="#2f2e41" id="svg_17" style="--darkreader-inline-fill: #0c0b08;" transform="translate(-225.58517 -171.39982)"/>
  <path d="m605.54,713.49l-38.8,15.11l-0.19,-0.49a16.21,16.21 0 0 1 9.22,-20.98l0,0l4.99,-8.14l15.32,0.23l3.38,-1.32l6.08,15.59z" fill="#2f2e41" id="svg_18" style="--darkreader-inline-fill: #0c0b08;" transform="translate(-225.58517 -171.39982)"/>
  <polygon fill="#ffb6b6" id="svg_19" points="470.462 475.448 489.209 474.029 486.873 523.483 474.17 524.444 470.462 475.448" style="--darkreader-inline-fill: #030302;"/>
  <path d="m593.03,553.53c-4.31,-18.98 7.83,37.62 20.43,48.2c4.96,4.16 25.7,-0.15 42.87,1.16a87.67,87.67 0 0 1 30.32,8.24c-2.74,4.99 0.12,12.44 0.65,19.14c0.98,12.21 1.96,23.45 1.96,23.45s-0.01,7.98 -0.55,9.05s-0.27,1.86 1.33,3.99s-1.07,2.13 -1.07,2.13s-1.07,2.13 1.33,3.99s8.07,7.3 8.07,7.3l15.24,-1.35c0.44,-5.06 1.75,-5.73 4.64,-9.91c2.74,-3.95 2.12,-27.69 0.18,-49.97c-0.13,-1.51 1.98,-6.26 1.83,-7.75c-1.43,-14.96 -5.64,-25.32 -7.49,-30.91c-1.29,-3.86 -7.44,-7.19 -15.76,-9.99c-1.27,-0.43 -2.59,-0.85 -3.95,-1.25c-22.93,-6.81 -57.45,-10.15 -57.45,-10.15l-18.88,-16.79l-23.7,11.42z" fill="#2f2e41" id="svg_20" style="--darkreader-inline-fill: #0c0b08;" transform="translate(-225.58517 -171.39982)"/>
  <path d="m698.05,693.13l3.45,-1.15l11.65,-9.94l9.03,3.08l0,0a16.21,16.21 0 0 1 20.49,10.27l0.16,0.5l-39.51,13.12l-5.27,-15.88z" fill="#2f2e41" id="svg_21" style="--darkreader-inline-fill: #0c0b08;" transform="translate(-225.58517 -171.39982)"/>
  <path d="m610.42,444.23l-11.34,8.64l-13.67,4.2s-5.66,79.53 -10.75,84.62s-0.5,5.23 -1.52,11.85s-3.52,20.19 -3.52,20.19c34.39,18.2 64.04,18.69 87.85,-2.61a5.93,5.93 0 0 0 -3.24,-6.7c-4.43,-2.35 4.09,-13.33 0.47,-15.16s1.47,-17.76 1.47,-17.76l-3.34,-33.21l2.64,-5.31l-6.45,-32.49l-11.18,-4.08l-4.46,-10.76l-22.96,-1.42z" fill="#6c63ff" id="svg_22" style="--darkreader-inline-fill: #000000;" transform="translate(-225.58517 -171.39982)"/>
  <circle cx="396.45" cy="245.6" fill="#ffb6b6" id="svg_23" r="22.43" style="--darkreader-inline-fill: #030302;"/>
  <path d="m603.32,585.58a9.83,9.83 0 0 0 -11.21,-10.08l-15.98,-31.06l-8.9,15.82l16.54,27.07a9.88,9.88 0 0 0 19.55,-1.75z" fill="#ffb6b6" id="svg_24" style="--darkreader-inline-fill: #030302;" transform="translate(-225.58517 -171.39982)"/>
  <path d="m576.41,577.98l-34.28,-53.13l0.11,-0.24c0.13,-0.28 7.89,-17.04 15.41,-32.4c1.16,-2.36 2.31,-4.7 3.43,-6.93q0.73,-1.44 1.43,-2.83c3.16,-6.23 5.92,-11.37 7.56,-13.82a29.02,29.02 0 0 1 15.38,-11.66l0.16,-0.04l0.15,0.06a14.72,14.72 0 0 1 8.76,16.2a104.3,104.3 0 0 1 -19.35,43.75l-5.56,7.33l19.31,41.98l-12.51,11.73z" fill="#6c63ff" id="svg_25" style="--darkreader-inline-fill: #000000;" transform="translate(-225.58517 -171.39982)"/>
  <path d="m665.67,597.79l0,1.43a3.15,3.15 0 0 1 -3.15,3.15l-104.82,0a3.15,3.15 0 0 1 -3.15,-3.15l0,-1.43a3.15,3.15 0 0 1 3.15,-3.15l1.86,0a2.65,2.65 0 0 1 -0.1,-0.71l0,-53.5a2.65,2.65 0 0 1 2.64,-2.64l96.02,0a2.65,2.65 0 0 1 2.64,2.64l0,53.5a2.5,2.5 0 0 1 -0.1,0.71l1.86,0a3.15,3.15 0 0 1 3.15,3.15z" fill="#3f3d56" id="svg_26" style="--darkreader-inline-fill: #15130f;" transform="translate(-225.58517 -171.39982)"/>
  <path d="m612.17,568.02a5.99,5.99 0 1 1 6,-6a6,6 0 0 1 -6,6zm0,-10.95a4.96,4.96 0 1 0 4.96,4.95a4.96,4.96 0 0 0 -4.96,-4.95z" fill="#fff" id="svg_27" style="--darkreader-inline-fill: #9a896b;" transform="translate(-225.58517 -171.39982)"/>
  <circle cx="384.52" cy="388.56" fill="#fff" id="svg_28" r="5.47" style="--darkreader-inline-fill: #9a896b;"/>
  <path d="m694.28,374.34a9.83,9.83 0 0 0 2.36,14.88l-7.15,34.2l16.88,-6.68l4.2,-31.45a9.88,9.88 0 0 0 -16.29,-10.95z" fill="#ffb6b6" id="svg_29" style="--darkreader-inline-fill: #030302;" transform="translate(-225.58517 -171.39982)"/>
  <path d="m484.81,225.79l-6.82,62.85l-0.25,0.12c-0.19,0.1 -8.84,4.34 -19.46,9.39c-1.79,0.86 -1.53,4.55 -3.4,5.43c-1.29,0.61 -4.7,-1.6 -6,-0.99c-11.6,5.43 -23.33,10.7 -28.01,12.13a29.02,29.02 0 0 1 -19.29,-0.62l-0.15,-0.07l-0.07,-0.14a14.72,14.72 0 0 1 3.39,-18.1a104.3,104.3 0 0 1 42.59,-21.81l8.92,-2.19l11.44,-44.77l17.11,-1.23z" fill="#6c63ff" id="svg_30" transform="matrix(1 0 0 1 0 0)"/>
  <path d="m672.19,373.68l2.56,23.31a2.85,2.85 0 0 0 2.72,2.01l11.84,0a2.85,2.85 0 0 0 2.72,-2.01l2.13,-17.86a4.32,4.32 0 1 0 1.11,-8.13a2.82,2.82 0 0 0 -2.15,-1l-18.21,0a2.85,2.85 0 0 0 -2.72,3.68zm22.34,4.24l1.3,-4.24a2.82,2.82 0 0 0 0.05,-1.5c0.05,-0.01 0.11,-0.02 0.16,-0.02a3.09,3.09 0 0 1 0,6.17a3.05,3.05 0 0 1 -1.51,-0.41z" fill="#3f3d56" id="svg_31" style="--darkreader-inline-fill: #756851;" transform="translate(-225.58517 -171.39982)"/>
  <path d="m640.3,397.73c-1.84,-5.37 -11.02,-9.09 -25.91,-9.61s-18.66,17.02 -18.66,17.02c-9.94,8.07 10.61,29.65 11.6,28.87l-0.44,-4.05c-0.74,-6.72 -3.89,-11.96 0.11,-18.96l3.84,0.04q7.44,1.43 14.88,2.87l-5.87,-5.18l0.17,-0.25a22.73,22.73 0 0 0 8.01,2.43c3.16,0.19 6.61,-1.07 8.12,-3.85a6.47,6.47 0 0 0 0.73,-2.46c4.25,1.71 6.2,6.95 6.2,6.95s-0.93,-8.46 -2.78,-13.82z" fill="#2f2e41" id="svg_32" style="--darkreader-inline-fill: #0c0b08;" transform="translate(-225.58517 -171.39982)"/>
 </g>
</svg>