<?xml version="1.0"?>
<svg width="861.34285" height="648.67936" xmlns="http://www.w3.org/2000/svg" xmlns:svg="http://www.w3.org/2000/svg" data-name="Layer 1">
 <g class="layer">
  <title>Layer 1</title>
  <path d="m318.64,172.65c37.1,-23.94 88.2,-14.64 124.34,10.73a196.93,196.93 0 0 1 32.31,28.83c5.65,6.19 10.99,12.69 16.11,19.41c1.26,1.65 2.52,3.31 3.75,5q1.26,1.7 2.5,3.43c10.38,14.43 19.89,29.6 29.21,44.64c23.25,37.54 47.11,76.19 82.53,102.55c7.3,5.43 17.48,10.31 24.96,5.13c6.49,-4.5 6.77,-13.97 5.29,-21.72c-5.49,-28.74 -25.29,-52.56 -46.33,-72.89c-21.04,-20.33 -44.34,-38.97 -60.23,-63.54c-15.9,-24.57 -23.16,-57.36 -9.24,-83.09c12,-22.18 37.82,-34.61 63.02,-35.19c25.21,-0.58 49.69,9.22 71.01,22.67c21.32,13.46 40.07,30.53 59.63,46.43c11.8,9.59 28.26,19.11 41.12,10.99c10.85,-6.86 11.7,-23.34 5.23,-34.43s-18.02,-18.07 -29.09,-24.57q-51.56,-30.29 -103.12,-60.57c-10.54,-6.19 -21.32,-12.57 -29.1,-22.01c-7.79,-9.43 -12.11,-22.69 -7.82,-34.14c4.23,-11.29 16.06,-18.45 28.02,-19.95c11.96,-1.49 24.02,1.83 35.2,6.32c41.92,16.83 140.61,126.95 166.91,145.77c16.9,12.1 34.66,27.4 36.37,48.12c2.13,25.78 -23.53,47.18 -49.28,49.68c-25.75,2.51 -50.7,-8.69 -73.71,-20.52s-46.49,-24.89 -72.31,-26.53c-25.82,-1.65 -54.79,12.16 -60.92,37.29c-5.32,21.88 8.21,44.45 25.84,58.45c13.8,10.96 29.99,18.25 45.64,26.46c4.34,2.27 8.64,4.62 12.83,7.13a180.25,180.25 0 0 1 29.93,22.51a183.68,183.68 0 0 1 25.78,29.64a179.18,179.18 0 0 1 15.62,27.17q1.01,2.18 1.95,4.41c0.6,1.43 1.18,2.87 1.73,4.33c7.18,18.91 9.98,40.11 0.81,57.76c-9.15,17.61 -28.97,28.04 -48.76,29.48a89.8,89.8 0 0 1 -33.79,-4.46a137.23,137.23 0 0 1 -23.13,-9.94c-34.25,-18.39 -61.38,-47.55 -86.15,-77.52c-24.76,-29.98 -48.08,-61.54 -77.48,-86.98c-29.39,-25.45 -66.23,-44.69 -105.12,-44.4c-38.88,0.29 -78.96,23.98 -90.01,61.26c-16.09,-27.74 -26.98,-59.36 -25.54,-91.39s16.54,-64.35 43.49,-81.75z" fill="#3f3d56" id="svg_1" transform="matrix(1 0 0 1 0 0)"/>
  <circle cx="469.49" cy="272.02" fill="#6c63ff" id="svg_2" r="4.27"/>
  <circle cx="308.5" cy="275.79" fill="#25d366" id="svg_3" r="6.6" transform="matrix(1 0 0 1 0 0)"/>
  <circle cx="785.87" cy="221.52" fill="#25d366" id="svg_4" r="2.44" transform="matrix(1 0 0 1 0 0)"/>
  <circle cx="736.49" cy="90.36" fill="#25d366" id="svg_5" r="2.44"/>
  <path d="m673.7,331.08a26.08,26.08 0 0 1 2.78,-5.68c4.34,2.27 8.64,4.62 12.83,7.13a180.25,180.25 0 0 1 29.94,22.51a26.02,26.02 0 0 1 -45.55,-23.96z" fill="#25d366" id="svg_6" transform="matrix(1 0 0 1 0 0)"/>
  <circle cx="362.47" cy="249.17" fill="#f0f0f0" id="svg_7" r="2.5"/>
  <circle cx="668.25" cy="64.51" fill="#f0f0f0" id="svg_8" r="2.5"/>
  <circle cx="645.78" cy="20.06" fill="#f0f0f0" id="svg_9" r="2.5"/>
  <circle cx="822.5" cy="185.77" fill="#f0f0f0" id="svg_10" r="2.5"/>
  <circle cx="691.4" cy="189.36" fill="#f0f0f0" id="svg_11" r="2.5"/>
  <circle cx="621.84" cy="427.41" fill="#f0f0f0" id="svg_12" r="2.5"/>
  <circle cx="543.41" cy="193.29" fill="#f0f0f0" id="svg_13" r="2.5"/>
  <circle cx="539.9" cy="146.1" fill="#f0f0f0" id="svg_14" r="2.5"/>
  <path d="m866.14,532.28c-3.7,-0.15 -7.3,-0.17 -10.77,-0.05c-21.35,0.74 -35.58,6.86 -39.03,16.79s3.93,23.55 20.24,37.36q2.42,2.05 5.04,4.06a80.03,80.03 0 0 1 24.52,-58.16z" fill="none" id="svg_15" transform="translate(-169.32858 -125.66032)"/>
  <path d="m846.05,563.68a79.5,79.5 0 0 1 20.09,-31.4q1.8,-1.72 3.71,-3.33a80.08,80.08 0 0 1 44.5,-18.61a179.18,179.18 0 0 1 15.62,27.17q1.01,2.18 1.95,4.41c0.6,1.43 1.18,2.87 1.73,4.33c7.18,18.91 9.98,40.11 0.81,57.76c-9.15,17.61 -28.97,28.04 -48.76,29.48a89.8,89.8 0 0 1 -33.79,-4.46a79.9,79.9 0 0 1 -10.13,-34.06c-0.1,-1.51 -0.14,-3.01 -0.16,-4.53a79.68,79.68 0 0 1 4.43,-26.76z" fill="#6c63ff" id="svg_16" transform="translate(-169.32858 -125.66032)"/>
  <path d="m813.02,547.87c4,-11.55 19,-18.35 42.23,-19.16c4.65,-0.16 9.76,1.77 14.6,0.24c23.44,-7.43 44.71,-2.57 62.07,12.97c0.6,1.43 1.18,2.87 1.73,4.33c-0.23,-0.09 -0.46,-0.17 -0.69,-0.25c-23.47,-8.14 -46.76,-12.89 -66.82,-13.72c-3.7,-0.15 -8.13,-2.29 -10.77,-0.04c-21.21,18.04 -35.55,10.48 -39.03,16.78c-5.08,9.21 3.94,23.55 20.24,37.36q2.42,2.05 5.04,4.06c0.02,1.51 0.06,3.02 0.16,4.53q-3.94,-2.92 -7.47,-5.9c-17.74,-15.02 -25.3,-29.66 -21.29,-41.2z" fill="#e4e4e4" id="svg_17" transform="translate(-169.32858 -125.66032)"/>
  <circle cx="731.56" cy="501.52" fill="#f0f0f0" id="svg_18" r="2.5"/>
  <circle cx="687.4" cy="469.42" fill="#f0f0f0" id="svg_19" r="2.5"/>
  <circle cx="721.19" cy="454.43" fill="#f0f0f0" id="svg_20" r="24.27"/>
  <path d="m509.19,311.78c5.68,0.27 17.41,3.09 30.13,6.73c12.71,3.65 26.49,8.09 40.1,12.49q35.73,11.55 71.46,23.08q4.91,1.59 9.85,3.2c1.26,1.65 2.52,3.31 3.75,5c-2.9,-1.03 -5.8,-2.02 -8.7,-2.96c-12.38,-4.02 -23.12,-6.68 -35.13,-10.34c-18.49,-5.62 -38,-13.01 -56.91,-19.9c-18.92,-6.88 -40.62,-14.3 -54.55,-17.3z" fill="#f0f0f0" id="svg_21" opacity="0.3" transform="translate(-169.32858 -125.66032)"/>
  <path d="m932.76,262.92l53.58,88.95l-50.56,-90.71a1.85,1.85 0 1 0 -3.02,1.76z" fill="#f0f0f0" id="svg_22" opacity="0.3" transform="translate(-169.32858 -125.66032)"/>
  <circle cx="737.3" cy="397.27" fill="#f0f0f0" id="svg_23" r="2.5"/>
  <circle cx="299.54" cy="375.53" fill="#6c63ff" id="svg_24" r="16"/>
  <path d="m459.39,492.4a11.44,11.44 0 0 1 -7.32,-15.94l-28.97,-28.52l20.66,-4.41l24.35,27.76a11.5,11.5 0 0 1 -8.72,21.11z" fill="#a0616a" id="svg_25" transform="translate(-169.32858 -125.66032)"/>
  <path d="m320.87,270.43l16.15,10.65l18.91,4.43s15,107.19 22.37,113.62s1.16,7.04 3.16,15.91s6.62,27.02 6.62,27.02c-44.9,27.83 -85,31.23 -119.23,4.57a8.05,8.05 0 0 1 3.77,-9.36c5.79,-3.6 -6.76,-17.68 -2.03,-20.5s-3.63,-23.91 -3.63,-23.91l1.46,-45.3l-4.07,-6.95l5.73,-44.6l14.77,-6.56l5.05,-14.99l30.97,-4.03z" fill="#6c63ff" id="svg_26" transform="translate(-169.32858 -125.66032)"/>
  <path d="m327.87,274.19l26.64,8.87s29.47,-3.11 30.66,40.76s-4.3,67.41 -4.3,67.41s61.31,123.28 -5.1,86.87l-19.4,-76.41l-20,-120l-8.5,-7.5z" fill="#2f2e41" id="svg_27" transform="translate(-169.32858 -125.66032)"/>
  <path d="m354.58,371.18l13.82,-1.91s1.34,20.83 7.95,23.99s4.38,3.68 5.16,7.02s-5.88,12.6 -0.64,14.91s51,60 51,60l27,-25c-1.86,-5.03 -10.79,-0.94 -11.35,-6.27c-0.7,-8.06 -14.84,-30.07 -17.84,-32.9s-1.82,-7.8 -3.38,-14.48s-0.48,-0.49 -3.08,-11.63s-37.8,-67.91 -39.03,-78.2s-15.56,-16.34 -15.56,-16.34l-11.14,2.6l-2.91,78.21z" fill="#2f2e41" id="svg_28" transform="translate(-169.32858 -125.66032)"/>
  <polygon fill="#a0616a" id="svg_29" points="68.581 615.998 84.845 620.268 109.058 559.567 85.054 553.264 68.581 615.998"/>
  <path d="m232.88,758.47l50.01,13.14l0.17,-0.64a20.13,20.13 0 0 0 -14.35,-24.57l0,0l-7.32,-9.33l-18.87,2.45l-4.36,-1.15l-5.28,20.1z" fill="#2f2e41" id="svg_30" transform="translate(-169.32858 -125.66032)"/>
  <polygon fill="#a0616a" id="svg_31" points="151.957 628.165 168.771 628.164 176.771 563.303 151.953 563.305 151.957 628.165"/>
  <path d="m320.69,771.37l51.71,0l0,-0.66a20.13,20.13 0 0 0 -20.12,-20.13l-0.01,0l-9.44,-7.16l-17.62,7.17l-4.52,0l0,20.78z" fill="#2f2e41" id="svg_32" transform="translate(-169.32858 -125.66032)"/>
  <path d="m279.23,443.44c-4.06,5.08 -2.03,22.34 -2.03,22.34s-7.11,55.86 -4.07,60.93s-2.03,9.14 -5.07,16.25s-6.1,24.38 -6.1,24.38c-17.26,14.21 -16.24,79.2 -16.24,79.2l-6.1,57.89c2.03,6.09 30.47,7.11 34.53,6.09s43.67,-144.2 43.67,-144.2s-2.03,138.11 -2.03,144.2s27.41,3.05 33.51,3.05s44.68,-248.8 44.68,-248.8l0,-14.22l-5.08,-7.11s-105.61,-5.07 -109.67,0z" fill="#2f2e41" id="svg_33" transform="translate(-169.32858 -125.66032)"/>
  <path d="m288.87,277.19l-24.94,15.89l-12.06,10.11l16,102s-24.31,92.71 14,87s36.16,-89.04 36.16,-89.04l-29.16,-125.96z" fill="#2f2e41" id="svg_34" transform="translate(-169.32858 -125.66032)"/>
  <path d="m322.24,422.08a11.44,11.44 0 0 1 -16.55,-5.83l-40.64,0.98l11.2,-17.91l36.88,1.81a11.5,11.5 0 0 1 9.11,20.95z" fill="#a0616a" id="svg_35" transform="translate(-169.32858 -125.66032)"/>
  <circle cx="132.63" cy="105.61" fill="#a0616a" id="svg_36" r="32.12"/>
  <path d="m265.53,210.17c3.6,-5.58 10.37,-9.3 16.93,-8.25a23.13,23.13 0 0 1 38.75,-13.49a7.19,7.19 0 0 1 7.04,-0.71a14.83,14.83 0 0 1 5.71,4.59a33.28,33.28 0 0 1 4.66,33.86c0.8,-2.92 -2.12,-5.66 -5.08,-6.31c-2.95,-0.66 -6.04,-0.04 -9.04,-0.47c-3.83,-0.54 -7.28,-2.77 -11.12,-3.27c-3.23,-0.42 -6.48,0.41 -9.63,1.24c-3.15,0.83 -6.39,1.68 -9.62,1.29c-3.23,-0.38 -7.4,11.87 -7.34,20.51c0.01,1.63 -0.33,3.73 -1.93,4.08c-1.97,0.43 -3.11,-2.29 -4.98,-3.03a3.47,3.47 0 0 0 -4.25,2.26a5.65,5.65 0 0 0 1.07,5.06a16.7,16.7 0 0 0 4.05,3.51l-0.77,0.65c-1.28,1.69 -3.94,1.76 -5.79,0.72a12.51,12.51 0 0 1 -4.17,-4.74c-3.42,-5.7 -6.42,-11.76 -7.63,-18.3s-0.47,-13.62 3.14,-19.2z" fill="#2f2e41" id="svg_37" transform="translate(-169.32858 -125.66032)"/>
  <path d="m276.87,306.19l-14.44,-12.37s-16.85,5.26 -19.71,16.31c-22.49,28.76 -34.6,62.35 -37.85,100.06c29.36,11.09 65.32,15.02 104,16l-8,-30l-55,-10l31,-80z" fill="#2f2e41" id="svg_38" transform="translate(-169.32858 -125.66032)"/>
  <path d="m225.73,757.23l-7.71,-12.39l-1.54,7.08c-0.27,1.24 -0.54,2.5 -0.79,3.75c-2.19,-1.87 -4.52,-3.6 -6.8,-5.26q-10.5,-7.62 -20.99,-15.26l2.19,12.7c1.35,7.82 2.76,15.8 6.1,22.95c0.37,0.81 0.77,1.61 1.2,2.39l32.54,0a10.49,10.49 0 0 0 0.54,-2.24a0.77,0.77 0 0 0 0.01,-0.15c0.51,-4.85 -2.17,-9.42 -4.75,-13.57z" fill="#f2f2f2" id="svg_39" transform="translate(-169.32858 -125.66032)"/>
  <path d="m513.3,742.99l14.58,-23.44l2.92,13.4c0.51,2.34 1.02,4.73 1.49,7.09c4.15,-3.54 8.55,-6.81 12.87,-9.95q19.86,-14.42 39.71,-28.87l-4.15,24.03c-2.55,14.79 -5.22,29.89 -11.54,43.42c-0.7,1.53 -1.45,3.04 -2.27,4.52l-61.56,0a19.84,19.84 0 0 1 -1.02,-4.24a1.46,1.46 0 0 1 -0.02,-0.28c-0.96,-9.18 4.11,-17.83 8.99,-25.68z" fill="#f2f2f2" id="svg_40" transform="translate(-169.32858 -125.66032)"/>
  <path d="m501.86,773.69l-66.98,0a11.52,11.52 0 0 1 -11.51,-11.51l0,-234.98a11.52,11.52 0 0 1 11.51,-11.51l66.98,0a11.52,11.52 0 0 1 11.51,11.51l0,234.98a11.52,11.52 0 0 1 -11.51,11.51z" fill="#f2f2f2" id="svg_41" transform="translate(-169.32858 -125.66032)"/>
  <path d="m486.04,521.69l-34.35,0a4.33,4.33 0 0 1 -4.32,-4.33l0,-12.35a4.33,4.33 0 0 1 4.32,-4.32l34.35,0a4.33,4.33 0 0 1 4.33,4.32l0,12.35a4.33,4.33 0 0 1 -4.33,4.33z" fill="#3f3d56" id="svg_42" transform="translate(-169.32858 -125.66032)"/>
  <path d="m584.27,774.03l-413.75,0.31a1.19,1.19 0 0 1 0,-2.38l413.75,-0.31a1.19,1.19 0 0 1 0,2.38z" fill="#cacaca" id="svg_43" transform="translate(-169.32858 -125.66032)"/>
 </g>
</svg>